<svg width="99" height="20" viewBox="0 0 99 20" fill="none" xmlns="http://www.w3.org/2000/svg">
<path d="M0 4.79446C0 4.08541 0.574768 3.50665 1.27893 3.50665H2.05834C2.06135 3.50059 2.06435 3.4915 2.06736 3.48544C2.03125 3.46726 1.99514 3.44605 1.95602 3.4309C1.09838 3.04304 0.514587 2.3855 0.13542 1.54313C0.0601888 1.37647 0.0421314 1.17648 0.0300944 0.988615C0.0150481 0.758325 0.117362 0.670452 0.349075 0.667422C1.02315 0.658331 1.67315 0.776507 2.30209 1.02801C3.34028 1.44314 4.18588 2.10977 4.89004 2.97032C5.01342 3.12183 5.13982 3.27334 5.26019 3.42484C5.32338 3.50363 5.38958 3.55816 5.50092 3.53998C5.56412 3.53089 5.62731 3.53696 5.71759 3.53696C5.56713 3.35212 5.4257 3.18546 5.29329 3.01274C4.75463 2.31581 4.33935 1.55828 4.14676 0.691659C4.0294 0.161386 4.34838 -0.120415 4.86296 0.0492722C5.97338 0.412888 6.74375 1.17042 7.2162 2.2643C7.33657 2.54307 7.42083 2.83397 7.52314 3.12183C7.55023 3.19758 7.5743 3.27637 7.61042 3.34909C7.67361 3.48242 7.75185 3.57332 7.92338 3.60968C9.09398 3.85512 9.9125 4.54599 10.394 5.65199C10.4903 5.87015 10.6167 6.07318 10.7491 6.27317C10.8815 6.47013 10.9146 6.66405 10.8454 6.88828C10.6708 7.44583 10.2826 7.79429 9.76505 8.02761C9.33773 8.21851 8.89236 8.33062 8.42592 8.35183C8.40787 8.35183 8.39282 8.35789 8.36574 8.36092C8.5824 8.43668 8.79606 8.49426 8.99467 8.58516C10.0028 9.05483 10.5926 9.86994 10.8544 10.9335C10.9326 11.2577 10.9687 11.5971 10.9928 11.9304C11.05 12.7667 10.7611 13.5 10.2917 14.1727C9.6868 15.0363 8.82014 15.4969 7.83611 15.7757C7.26435 15.9393 6.66852 16.0029 6.07268 15.9999C4.0956 15.9938 2.11551 15.9969 0.138428 15.9999C0.0993075 15.9999 0.0571772 15.9999 0.0060198 15.9999V4.79446H0ZM2.84074 9.91538C2.73542 9.91538 2.64815 10.0033 2.64815 10.1093V14C2.67523 14.0091 2.68125 14.0152 2.69028 14.0152C3.47268 14.0091 4.2581 14.0152 5.04051 13.9909C5.38055 13.9818 5.70856 13.8818 6.00046 13.6849C6.42176 13.4 6.60231 12.9455 6.44884 12.491C6.31643 12.0971 6.03356 11.8365 5.65139 11.685C5.50393 11.6244 5.34444 11.591 5.19097 11.5426C5.57315 11.5698 5.95833 11.582 6.32847 11.7123C6.57222 11.7971 6.77384 11.9304 6.9544 12.1031C7.08078 12.2243 7.28541 12.1243 7.27037 11.9486C7.26435 11.8698 7.2493 11.791 7.22824 11.7123C6.9875 10.7941 6.18703 9.92751 4.95625 9.91842C4.5831 9.91539 4.20995 9.91538 3.8338 9.91538C3.50579 9.91538 3.17477 9.91538 2.84074 9.91538ZM2.63009 7.44583C2.63009 7.55188 2.71435 7.63673 2.81968 7.63673C3.38241 7.64279 3.91203 7.68823 4.44768 7.63975C4.89606 7.59127 5.28727 7.37008 5.54004 6.97313C5.75972 6.62466 5.83194 6.15196 5.82894 5.74289C5.82894 5.6126 5.66643 5.52775 5.66643 5.52775C5.58217 5.47018 5.31736 5.45806 5.14283 5.45503C4.35139 5.44594 3.55995 5.452 2.76551 5.452C2.72037 5.452 2.67824 5.45503 2.63009 5.45806V7.44583ZM7.87523 5.4823C7.87523 5.68532 8.03171 5.84895 8.23032 5.85501C8.44097 5.86107 8.61551 5.68835 8.6125 5.47927C8.60949 5.27323 8.44398 5.11565 8.23333 5.11565C8.03472 5.11565 7.87523 5.27625 7.87523 5.4823Z" fill="#FAFAFA"/>
<path d="M41 5.79446C41 5.08541 41.5748 4.50665 42.2789 4.50665H43.0583C43.0613 4.50059 43.0644 4.4915 43.0674 4.48544C43.0313 4.46726 42.9951 4.44605 42.956 4.4309C42.0984 4.04304 41.5146 3.3855 41.1354 2.54313C41.0602 2.37647 41.0421 2.17648 41.0301 1.98862C41.015 1.75833 41.1174 1.67045 41.3491 1.66742C42.0231 1.65833 42.6732 1.77651 43.3021 2.02801C44.3403 2.44314 45.1859 3.10977 45.89 3.97032C46.0134 4.12183 46.1398 4.27334 46.2602 4.42484C46.3234 4.50363 46.3896 4.55816 46.5009 4.53998C46.5641 4.53089 46.6273 4.53696 46.7176 4.53696C46.5671 4.35212 46.4257 4.18546 46.2933 4.01274C45.7546 3.31581 45.3393 2.55828 45.1468 1.69166C45.0294 1.16139 45.3484 0.879585 45.863 1.04927C46.9734 1.41289 47.7438 2.17042 48.2162 3.2643C48.3366 3.54307 48.4208 3.83397 48.5231 4.12183C48.5502 4.19758 48.5743 4.27637 48.6104 4.34909C48.6736 4.48242 48.7518 4.57332 48.9234 4.60968C50.094 4.85512 50.9125 5.54599 51.394 6.65199C51.4903 6.87015 51.6167 7.07318 51.7491 7.27317C51.8815 7.47013 51.9146 7.66405 51.8454 7.88828C51.6708 8.44583 51.2826 8.79429 50.765 9.02761C50.3377 9.21851 49.8924 9.33062 49.4259 9.35183C49.4079 9.35183 49.3928 9.35789 49.3657 9.36092C49.5824 9.43668 49.7961 9.49426 49.9947 9.58516C51.0028 10.0548 51.5926 10.8699 51.8544 11.9335C51.9326 12.2577 51.9687 12.5971 51.9928 12.9304C52.05 13.7667 51.7611 14.5 51.2917 15.1727C50.6868 16.0363 49.8201 16.4969 48.8361 16.7757C48.2644 16.9393 47.6685 17.0029 47.0727 16.9999C45.0956 16.9938 43.1155 16.9969 41.1384 16.9999C41.0993 16.9999 41.0572 16.9999 41.006 16.9999V5.79446H41ZM43.8407 10.9154C43.7354 10.9154 43.6481 11.0033 43.6481 11.1093V15C43.6752 15.0091 43.6812 15.0152 43.6903 15.0152C44.4727 15.0091 45.2581 15.0152 46.0405 14.9909C46.3806 14.9818 46.7086 14.8818 47.0005 14.6849C47.4218 14.4 47.6023 13.9455 47.4488 13.491C47.3164 13.0971 47.0336 12.8365 46.6514 12.685C46.5039 12.6244 46.3444 12.591 46.191 12.5426C46.5731 12.5698 46.9583 12.582 47.3285 12.7123C47.5722 12.7971 47.7738 12.9304 47.9544 13.1031C48.0808 13.2243 48.2854 13.1243 48.2704 12.9486C48.2643 12.8698 48.2493 12.791 48.2282 12.7123C47.9875 11.7941 47.187 10.9275 45.9562 10.9184C45.5831 10.9154 45.21 10.9154 44.8338 10.9154C44.5058 10.9154 44.1748 10.9154 43.8407 10.9154ZM43.6301 8.44583C43.6301 8.55188 43.7144 8.63673 43.8197 8.63673C44.3824 8.64279 44.912 8.68823 45.4477 8.63975C45.8961 8.59127 46.2873 8.37008 46.54 7.97313C46.7597 7.62466 46.8319 7.15196 46.8289 6.74289C46.8289 6.6126 46.6664 6.52775 46.6664 6.52775C46.5822 6.47018 46.3174 6.45806 46.1428 6.45503C45.3514 6.44594 44.56 6.45199 43.7655 6.45199C43.7204 6.45199 43.6782 6.45503 43.6301 6.45806V8.44583ZM48.8752 6.4823C48.8752 6.68532 49.0317 6.84895 49.2303 6.85501C49.441 6.86107 49.6155 6.68835 49.6125 6.47927C49.6095 6.27323 49.444 6.11565 49.2333 6.11565C49.0347 6.11565 48.8752 6.27625 48.8752 6.4823Z" fill="#FAFAFA"/>
<path d="M15.1992 6.52539C15.7188 6.52539 16.2087 6.57096 16.6689 6.66211C17.2887 6.78516 17.5986 7.0472 17.5986 7.44824C17.5986 7.5804 17.5667 7.68066 17.5029 7.74902C17.4437 7.81283 17.2887 7.90853 17.0381 8.03613C16.8285 8.14095 16.6895 8.37109 16.6211 8.72656C16.5573 9.08203 16.5254 9.77474 16.5254 10.8047C16.5254 12.5456 16.5687 13.6234 16.6553 14.0381C16.6872 14.1702 16.735 14.2728 16.7988 14.3457C16.8672 14.4141 16.9834 14.4893 17.1475 14.5713C17.4482 14.708 17.5986 14.9062 17.5986 15.166C17.5986 15.5306 17.3206 15.7812 16.7646 15.918C16.1631 16.0638 15.4271 16.1367 14.5566 16.1367C13.071 16.1367 12.3281 15.8542 12.3281 15.2891C12.3281 15.084 12.474 14.8926 12.7656 14.7148C12.9889 14.5781 13.1211 14.3913 13.1621 14.1543C13.2487 13.6348 13.292 12.5319 13.292 10.8457C13.292 9.67904 13.2327 8.93164 13.1143 8.60352C13.0505 8.41667 12.8978 8.24805 12.6562 8.09766C12.4694 7.97461 12.3441 7.87207 12.2803 7.79004C12.2165 7.70801 12.1846 7.60319 12.1846 7.47559C12.1846 7.27962 12.278 7.12467 12.4648 7.01074C12.6562 6.89225 12.9912 6.78743 13.4697 6.69629C14.0394 6.58236 14.6159 6.52539 15.1992 6.52539ZM20.9893 6.66895H24.5918C24.9792 6.65527 25.3324 6.60286 25.6514 6.51172C25.7881 6.47526 25.9089 6.45703 26.0137 6.45703C26.3828 6.45703 26.7406 6.73047 27.0869 7.27734C27.4378 7.82422 27.6133 8.38704 27.6133 8.96582C27.6133 9.3623 27.4925 9.65169 27.251 9.83398C27.0687 9.9707 26.8499 10.0391 26.5947 10.0391C26.3532 10.0391 26.1436 9.97298 25.9658 9.84082C25.7881 9.7041 25.6126 9.48079 25.4395 9.1709C25.2891 8.88835 25.1706 8.70378 25.084 8.61719C24.9974 8.5306 24.8926 8.4873 24.7695 8.4873C24.6009 8.4873 24.4801 8.55794 24.4072 8.69922C24.3343 8.84049 24.2979 9.07292 24.2979 9.39648V13.2246C24.2979 13.6165 24.3389 13.9014 24.4209 14.0791C24.5029 14.2568 24.6579 14.3936 24.8857 14.4893C25.1318 14.5941 25.2982 14.6943 25.3848 14.79C25.4759 14.8812 25.5215 15.0088 25.5215 15.1729C25.5215 15.501 25.2982 15.7448 24.8516 15.9043C24.4095 16.0638 23.7282 16.1436 22.8076 16.1436C21.6774 16.1436 20.8389 16.0501 20.292 15.8633C19.8317 15.7083 19.6016 15.4577 19.6016 15.1113C19.6016 14.9245 19.6836 14.7786 19.8477 14.6738C19.8887 14.651 20.0505 14.5964 20.333 14.5098C20.5062 14.4596 20.6247 14.3639 20.6885 14.2227C20.7568 14.0814 20.8115 13.8102 20.8525 13.4092C20.889 13.0537 20.9232 12.4795 20.9551 11.6865C20.987 10.889 21.0029 10.1986 21.0029 9.61523C21.0029 9.20508 20.971 8.91341 20.9072 8.74023C20.8434 8.56706 20.7386 8.48047 20.5928 8.48047C20.415 8.48047 20.2419 8.60807 20.0732 8.86328C19.7679 9.32812 19.5173 9.63574 19.3213 9.78613C19.0889 9.96387 18.8633 10.0527 18.6445 10.0527C18.3984 10.0527 18.1956 9.96159 18.0361 9.7793C17.8766 9.59245 17.7969 9.35547 17.7969 9.06836C17.7969 8.78581 17.8607 8.47591 17.9883 8.13867C18.1159 7.79688 18.2868 7.48242 18.501 7.19531C18.8473 6.73047 19.1891 6.49805 19.5264 6.49805C19.6175 6.49805 19.7223 6.51172 19.8408 6.53906C20.0869 6.58919 20.2874 6.62337 20.4424 6.6416C20.6019 6.65983 20.7842 6.66895 20.9893 6.66895ZM29.3018 6.66895H32.8154C33.5264 6.66895 34.0436 6.65527 34.3672 6.62793C34.6953 6.59603 35.0143 6.53451 35.3242 6.44336C35.4199 6.41602 35.4951 6.40234 35.5498 6.40234C35.7868 6.40234 35.9964 6.52995 36.1787 6.78516C36.4795 7.19987 36.6299 7.70117 36.6299 8.28906C36.6299 8.58529 36.5661 8.81999 36.4385 8.99316C36.3154 9.16178 36.1445 9.24609 35.9258 9.24609C35.7754 9.24609 35.6569 9.21647 35.5703 9.15723C35.4883 9.09342 35.3766 8.95443 35.2354 8.74023C35.0348 8.4349 34.7796 8.2321 34.4697 8.13184C34.1644 8.02702 33.6608 7.97461 32.959 7.97461C32.4349 7.97461 32.1159 8.06803 32.002 8.25488C31.9427 8.35514 31.9062 8.48958 31.8926 8.6582C31.8835 8.82682 31.8789 9.25749 31.8789 9.9502C31.8789 10.2236 31.9245 10.3945 32.0156 10.4629C32.1068 10.5267 32.346 10.5586 32.7334 10.5586C32.9248 10.5586 33.0638 10.5199 33.1504 10.4424C33.237 10.3604 33.2917 10.2168 33.3145 10.0117C33.3464 9.7474 33.3783 9.56738 33.4102 9.47168C33.4466 9.37142 33.5104 9.28483 33.6016 9.21191C33.6973 9.12988 33.8089 9.08887 33.9365 9.08887C34.1234 9.08887 34.2829 9.17773 34.415 9.35547C34.5107 9.48763 34.5905 9.72233 34.6543 10.0596C34.7227 10.3923 34.7568 10.7409 34.7568 11.1055C34.7568 11.8255 34.6452 12.4157 34.4219 12.876C34.2988 13.1266 34.112 13.252 33.8613 13.252C33.7064 13.252 33.5993 13.2132 33.54 13.1357C33.4808 13.0537 33.4352 12.8874 33.4033 12.6367C33.335 12.1217 33.0342 11.8643 32.501 11.8643C32.2959 11.8643 32.1546 11.9303 32.0771 12.0625C32.0042 12.1901 31.9678 12.4294 31.9678 12.7803C31.9678 12.9945 31.9814 13.2725 32.0088 13.6143C32.0407 13.9515 32.0726 14.1748 32.1045 14.2842C32.141 14.4209 32.2526 14.5166 32.4395 14.5713C32.6309 14.6214 32.9476 14.6465 33.3896 14.6465C34.0732 14.6465 34.5882 14.5599 34.9346 14.3867C35.2809 14.209 35.5635 13.89 35.7822 13.4297C35.9098 13.1654 36.0238 12.9876 36.124 12.8965C36.2288 12.8053 36.3633 12.7598 36.5273 12.7598C36.7188 12.7598 36.876 12.8441 36.999 13.0127C37.1266 13.1768 37.1904 13.3841 37.1904 13.6348C37.1904 13.9082 37.1198 14.25 36.9785 14.6602C36.8372 15.0703 36.6641 15.4349 36.459 15.7539C36.3542 15.9089 36.2676 16.0114 36.1992 16.0615C36.1309 16.1162 36.0443 16.1436 35.9395 16.1436C35.8529 16.1436 35.7275 16.1299 35.5635 16.1025C35.2718 16.0479 34.8822 16.0137 34.3945 16H28.5977C28.3652 16 28.1852 15.9499 28.0576 15.8496C27.93 15.7448 27.8662 15.599 27.8662 15.4121C27.8662 15.2799 27.8936 15.1842 27.9482 15.125C28.0029 15.0658 28.1283 14.9906 28.3242 14.8994C28.4609 14.8402 28.5612 14.7673 28.625 14.6807C28.6934 14.5941 28.7458 14.4665 28.7822 14.2979C28.9326 13.6097 29.0078 12.6823 29.0078 11.5156C29.0078 9.75651 28.8984 8.64681 28.6797 8.18652C28.6341 8.09538 28.584 8.03158 28.5293 7.99512C28.4746 7.95866 28.3607 7.91536 28.1875 7.86523C27.9277 7.78776 27.7979 7.61458 27.7979 7.3457C27.7979 7.19987 27.8411 7.06999 27.9277 6.95605C28.0143 6.84212 28.1283 6.76693 28.2695 6.73047C28.4473 6.68945 28.7913 6.66895 29.3018 6.66895Z" fill="#FAFAFA"/>
<path d="M63.2949 11.0869V12.7549C63.2949 13.762 63.2197 14.4753 63.0693 14.8945C62.7458 15.7786 62.0348 16.4189 60.9365 16.8154C60.2712 17.0615 59.5192 17.1846 58.6807 17.1846C57.2178 17.1846 56.0465 16.8359 55.167 16.1387C54.7386 15.7969 54.4424 15.4004 54.2783 14.9492C54.1143 14.498 54.0322 13.8464 54.0322 12.9941C54.0322 12.6615 54.0436 12.1146 54.0664 11.3535C54.0801 10.8158 54.0869 10.4603 54.0869 10.2871C54.0869 9.90885 54.0573 9.64681 53.998 9.50098C53.9434 9.35514 53.8203 9.21842 53.6289 9.09082C53.3281 8.89486 53.1777 8.67611 53.1777 8.43457C53.1777 8.25684 53.2529 8.09961 53.4033 7.96289C53.5583 7.82617 53.7611 7.73275 54.0117 7.68262C54.513 7.58236 55.1055 7.53223 55.7891 7.53223C56.541 7.53223 57.1654 7.58919 57.6621 7.70312C58.1497 7.8125 58.3936 8.06087 58.3936 8.44824C58.3936 8.63965 58.3229 8.79232 58.1816 8.90625C58.1497 8.93359 58.013 9.00423 57.7715 9.11816C57.6257 9.18197 57.5254 9.29818 57.4707 9.4668C57.4206 9.63542 57.3955 9.91341 57.3955 10.3008C57.3955 10.6973 57.3773 11.554 57.3408 12.8711C57.318 13.6549 57.5299 14.252 57.9766 14.6621C58.3411 14.9993 58.8105 15.168 59.3848 15.168C59.7493 15.168 60.0798 15.1019 60.376 14.9697C60.6722 14.833 60.8978 14.6484 61.0527 14.416C61.1758 14.2383 61.2601 14.04 61.3057 13.8213C61.3512 13.6025 61.374 13.304 61.374 12.9258V11.4219C61.3512 10.2689 61.3171 9.5944 61.2715 9.39844C61.2305 9.19792 61.0846 9.04069 60.834 8.92676C60.597 8.82194 60.4352 8.72624 60.3486 8.63965C60.262 8.55306 60.2188 8.44596 60.2188 8.31836C60.2188 8.04492 60.3805 7.84668 60.7041 7.72363C61.0322 7.59603 61.5563 7.53223 62.2764 7.53223C62.9827 7.53223 63.4932 7.59375 63.8076 7.7168C64.1266 7.83984 64.2861 8.03581 64.2861 8.30469C64.2861 8.43685 64.2588 8.53483 64.2041 8.59863C64.1494 8.66243 64.0059 8.76042 63.7734 8.89258C63.5319 9.0293 63.3929 9.17741 63.3564 9.33691C63.3245 9.49186 63.304 10.0752 63.2949 11.0869ZM68.5176 7.99707L71.9219 10.9775C72.2409 11.2555 72.471 11.3945 72.6123 11.3945C72.8493 11.3945 72.9678 11.1416 72.9678 10.6357C72.9678 10.0615 72.9336 9.6696 72.8652 9.45996C72.7969 9.25033 72.6533 9.0931 72.4346 8.98828C72.2568 8.90169 72.1315 8.81055 72.0586 8.71484C71.9857 8.61458 71.9492 8.48698 71.9492 8.33203C71.9492 7.94922 72.2113 7.70312 72.7354 7.59375C72.9495 7.54818 73.3232 7.52539 73.8564 7.52539C74.5446 7.52539 75.0208 7.56641 75.2852 7.64844C75.7044 7.77604 75.9141 8.01758 75.9141 8.37305C75.9141 8.66927 75.7432 8.89258 75.4014 9.04297C75.2646 9.10221 75.1712 9.15462 75.1211 9.2002C75.071 9.24577 75.0277 9.31413 74.9912 9.40527C74.8682 9.70605 74.8044 10.2757 74.7998 11.1143V13.3428C74.7998 13.6846 74.8021 14.1517 74.8066 14.7441C74.8112 15.5462 74.7633 16.125 74.6631 16.4805C74.54 16.9225 74.3167 17.1436 73.9932 17.1436C73.8519 17.1436 73.7288 17.1139 73.624 17.0547C73.5238 16.9954 73.3551 16.8587 73.1182 16.6445L69.0645 13.0146C68.7819 12.7594 68.5472 12.6318 68.3604 12.6318C68.0824 12.6318 67.9434 13.0169 67.9434 13.7871C67.9434 14.4206 67.9775 14.8535 68.0459 15.0859C68.1188 15.3184 68.2646 15.4893 68.4834 15.5986C68.7887 15.749 68.9414 15.945 68.9414 16.1865C68.9414 16.82 68.2601 17.1367 66.8975 17.1367C66.2822 17.1367 65.8037 17.057 65.4619 16.8975C65.1247 16.7334 64.9561 16.5033 64.9561 16.207C64.9561 16.0521 64.988 15.9359 65.0518 15.8584C65.1156 15.7809 65.2591 15.6761 65.4824 15.5439C65.6966 15.4163 65.8265 15.1908 65.8721 14.8672C65.9495 14.2793 65.9883 13.4339 65.9883 12.3311C65.9883 11.1553 65.9199 10.2985 65.7832 9.76074C65.7331 9.56478 65.6693 9.41895 65.5918 9.32324C65.5143 9.22754 65.3867 9.13639 65.209 9.0498C65.0039 8.94954 64.8604 8.85156 64.7783 8.75586C64.7008 8.66016 64.6621 8.54395 64.6621 8.40723C64.6621 7.96973 65.0381 7.69401 65.79 7.58008C66.0452 7.54362 66.4919 7.52539 67.1299 7.52539C67.4945 7.52539 67.7588 7.55501 67.9229 7.61426C68.0915 7.66895 68.2897 7.79655 68.5176 7.99707ZM80.1387 7.99707L83.543 10.9775C83.862 11.2555 84.0921 11.3945 84.2334 11.3945C84.4704 11.3945 84.5889 11.1416 84.5889 10.6357C84.5889 10.0615 84.5547 9.6696 84.4863 9.45996C84.418 9.25033 84.2744 9.0931 84.0557 8.98828C83.8779 8.90169 83.7526 8.81055 83.6797 8.71484C83.6068 8.61458 83.5703 8.48698 83.5703 8.33203C83.5703 7.94922 83.8324 7.70312 84.3564 7.59375C84.5706 7.54818 84.9443 7.52539 85.4775 7.52539C86.1657 7.52539 86.6419 7.56641 86.9062 7.64844C87.3255 7.77604 87.5352 8.01758 87.5352 8.37305C87.5352 8.66927 87.3643 8.89258 87.0225 9.04297C86.8857 9.10221 86.7923 9.15462 86.7422 9.2002C86.6921 9.24577 86.6488 9.31413 86.6123 9.40527C86.4893 9.70605 86.4255 10.2757 86.4209 11.1143V13.3428C86.4209 13.6846 86.4232 14.1517 86.4277 14.7441C86.4323 15.5462 86.3844 16.125 86.2842 16.4805C86.1611 16.9225 85.9378 17.1436 85.6143 17.1436C85.473 17.1436 85.3499 17.1139 85.2451 17.0547C85.1449 16.9954 84.9762 16.8587 84.7393 16.6445L80.6855 13.0146C80.403 12.7594 80.1683 12.6318 79.9814 12.6318C79.7035 12.6318 79.5645 13.0169 79.5645 13.7871C79.5645 14.4206 79.5986 14.8535 79.667 15.0859C79.7399 15.3184 79.8857 15.4893 80.1045 15.5986C80.4098 15.749 80.5625 15.945 80.5625 16.1865C80.5625 16.82 79.8812 17.1367 78.5186 17.1367C77.9033 17.1367 77.4248 17.057 77.083 16.8975C76.7458 16.7334 76.5771 16.5033 76.5771 16.207C76.5771 16.0521 76.609 15.9359 76.6729 15.8584C76.7367 15.7809 76.8802 15.6761 77.1035 15.5439C77.3177 15.4163 77.4476 15.1908 77.4932 14.8672C77.5706 14.2793 77.6094 13.4339 77.6094 12.3311C77.6094 11.1553 77.541 10.2985 77.4043 9.76074C77.3542 9.56478 77.2904 9.41895 77.2129 9.32324C77.1354 9.22754 77.0078 9.13639 76.8301 9.0498C76.625 8.94954 76.4814 8.85156 76.3994 8.75586C76.3219 8.66016 76.2832 8.54395 76.2832 8.40723C76.2832 7.96973 76.6592 7.69401 77.4111 7.58008C77.6663 7.54362 78.113 7.52539 78.751 7.52539C79.1156 7.52539 79.3799 7.55501 79.5439 7.61426C79.7126 7.66895 79.9108 7.79655 80.1387 7.99707ZM90.7275 7.52539C91.6208 7.52539 92.3021 7.57324 92.7715 7.66895C92.9857 7.70996 93.1566 7.79199 93.2842 7.91504C93.4163 8.03353 93.4824 8.17025 93.4824 8.3252C93.4824 8.44368 93.4323 8.56445 93.332 8.6875C93.1862 8.87435 93.1133 9.00879 93.1133 9.09082C93.1133 9.25488 93.2432 9.51693 93.5029 9.87695C93.6715 10.1094 93.8311 10.2256 93.9814 10.2256C94.0771 10.2256 94.1706 10.1914 94.2617 10.123C94.3529 10.0501 94.4714 9.92253 94.6172 9.74023C94.7949 9.51693 94.8838 9.33919 94.8838 9.20703C94.8838 9.125 94.8724 9.06348 94.8496 9.02246C94.8314 8.98145 94.7585 8.88346 94.6309 8.72852C94.5397 8.6237 94.4941 8.48242 94.4941 8.30469C94.4941 7.78971 95.1914 7.53223 96.5859 7.53223C97.3743 7.53223 97.887 7.56868 98.124 7.6416C98.2744 7.68717 98.3975 7.77376 98.4932 7.90137C98.5934 8.02897 98.6436 8.16569 98.6436 8.31152C98.6436 8.49837 98.5866 8.63965 98.4727 8.73535C98.3587 8.83105 98.1605 8.90397 97.8779 8.9541C97.6182 9.00423 97.3926 9.10449 97.2012 9.25488C97.0098 9.40072 96.6589 9.74707 96.1484 10.2939C95.5286 10.9639 95.1413 11.4583 94.9863 11.7773C94.8359 12.0918 94.7607 12.5635 94.7607 13.1924C94.7607 13.721 94.7812 14.2109 94.8223 14.6621C94.8451 14.9401 94.8883 15.1338 94.9521 15.2432C95.016 15.348 95.1481 15.4528 95.3486 15.5576C95.6813 15.7308 95.8477 15.9473 95.8477 16.207C95.8477 16.8268 94.9316 17.1367 93.0996 17.1367C92.3477 17.1367 91.6367 17.0638 90.9668 16.918C90.4017 16.7949 90.1191 16.5511 90.1191 16.1865C90.1191 15.904 90.2923 15.7012 90.6387 15.5781C90.8984 15.487 91.0602 15.3708 91.124 15.2295C91.2699 14.915 91.3428 14.1722 91.3428 13.001C91.3428 12.6364 91.3063 12.3538 91.2334 12.1533C91.1605 11.9482 91.001 11.6839 90.7549 11.3604C90.2399 10.6904 89.709 10.0866 89.1621 9.54883C88.9251 9.31641 88.6973 9.15918 88.4785 9.07715C88.1686 8.96322 87.9818 8.87891 87.918 8.82422C87.7904 8.71484 87.7266 8.56901 87.7266 8.38672C87.7266 8.08138 87.9567 7.86263 88.417 7.73047C88.8773 7.59375 89.6475 7.52539 90.7275 7.52539Z" fill="#FAFAFA"/>
</svg>
